<?xml version="1.0" encoding="UTF-8"?>
<svg xmlns="http://www.w3.org/2000/svg" xmlns:xlink="http://www.w3.org/1999/xlink" width="300px" height="200px" viewBox="0 0 300 200" version="1.1">
<g id="surface1">
<path style=" stroke:none;fill-rule:nonzero;fill:rgb(70.980392%,12.941176%,14.509804%);fill-opacity:1;" d="M 0.304688 58.160156 C 0.285156 53.101562 0.230469 34.074219 0.230469 29.605469 C 4.234375 28.785156 149.546875 0.03125 149.835938 0 C 149.835938 59.648438 149.796875 119.308594 149.726562 178.984375 C 149.726562 185.980469 149.953125 193 149.960938 200 C 145.75 199.199219 12.34375 172.929688 0.296875 170.546875 C 0.28125 170.050781 0.230469 113.445312 0.230469 85.621094 C 0.230469 85.125 0.191406 84.636719 0.230469 84.140625 L 116.222656 78.996094 L 116.222656 44.597656 C 111.722656 45.101562 0.738281 58.09375 0.304688 58.160156 Z M 116.253906 115.484375 L 24.207031 112.46875 L 24.207031 144.738281 L 116.253906 155.558594 Z M 116.253906 115.484375 "/>
<path style=" stroke:none;fill-rule:nonzero;fill:rgb(70.980392%,12.941176%,14.509804%);fill-opacity:1;" d="M 0.585938 58.160156 C 0.570312 53.101562 0.527344 34.074219 0.519531 29.605469 C 4.515625 28.785156 149.828125 0.03125 150.109375 0 C 150.109375 59.648438 150.078125 119.308594 150.007812 178.984375 C 150.007812 185.980469 150.238281 193 150.242188 200 C 146.03125 199.199219 12.625 172.929688 0.582031 170.546875 C 0.582031 170.050781 0.53125 113.433594 0.539062 85.621094 C 0.539062 85.125 0.496094 84.636719 0.539062 84.140625 L 116.53125 78.996094 L 116.53125 44.597656 C 112.003906 45.101562 1.015625 58.09375 0.585938 58.160156 Z M 116.535156 115.484375 L 24.488281 112.46875 L 24.488281 144.738281 L 116.535156 155.558594 Z M 116.535156 115.484375 "/>
<path style=" stroke:none;fill-rule:nonzero;fill:rgb(91.764706%,11.372549%,14.509804%);fill-opacity:1;" d="M 149.835938 0 C 153.558594 0.707031 287.050781 27.046875 299.753906 29.511719 C 299.785156 29.699219 299.753906 170.113281 299.753906 170.492188 C 296.207031 171.191406 150.460938 199.933594 149.953125 200 C 149.96875 199.464844 149.835938 66.117188 149.835938 0 Z M 180.601562 155.800781 L 278.0625 144.386719 L 278.0625 54.972656 L 180.601562 43.355469 Z M 180.601562 155.800781 "/>
</g>
</svg>
